<svg xmlns="http://www.w3.org/2000/svg" viewBox="0 0 24 24" id="gym"><g fill="none" stroke="#303C42" stroke-linecap="round" stroke-linejoin="round" stroke-miterlimit="10"><path d="M11.143 23.145L.855 12.857a1.212 1.212 0 0 1 0-1.714L11.143.855a1.212 1.212 0 0 1 1.714 0l10.288 10.288a1.212 1.212 0 0 1 0 1.714L12.857 23.145a1.212 1.212 0 0 1-1.714 0z"></path><path d="M9 14.5H8a.5.5 0 01-.5-.5v-4a.5.5 0 01.5-.5h1a.5.5 0 01.5.5v4a.5.5 0 01-.5.5zM7 13.5H6a.5.5 0 01-.5-.5v-2a.5.5 0 01.5-.5h1a.5.5 0 01.5.5v2a.5.5 0 01-.5.5zM15 9.5h1a.5.5 0 01.5.5v4a.5.5 0 01-.5.5h-1a.5.5 0 01-.5-.5v-4a.5.5 0 01.5-.5zM17 10.5h1a.5.5 0 01.5.5v2a.5.5 0 01-.5.5h-1a.5.5 0 01-.5-.5v-2a.5.5 0 01.5-.5zM9.5 12h5M4.5 12h1M19.5 12h-1"></path></g></svg>